{"title":"Nuru Massage - Angelina Chung in That was Easy.mp4","uid":9005743,"size":1081426274,"categoryP":"porn","categoryS":"movie_clips","magnet":"?xt=urn:btih:91eb89e16ad7c7fe26fb6972e45b07fd5daaaae6&amp;dn=Nuru+Massage+-+Angelina+Chung+in+That+was+Easy.mp4&amp;tr=udp%3A%2F%2Ftracker.openbittorrent.com%3A80&amp;tr=udp%3A%2F%2Fopen.demonii.com%3A1337&amp;tr=udp%3A%2F%2Ftracker.coppersurfer.tk%3A6969&amp;tr=udp%3A%2F%2Fexodus.desync.com%3A6969","seeders":0,"leechers":1,"uploader":null,"files":1,"time":1381026395,"description":" &lt;a href=&quot;http://www.hostpornpics.net/pornmg/share.php?id=07BC_5250AD93&quot; rel=&quot;nofollow&quot; target=&quot;_NEW&quot;&gt;http://www.hostpornpics.net/pornmg/share.php?id=07BC_5250AD93&lt;/a&gt;\n\nJust two hundred bucks in cash and remembering a four letter password like Nuru is all it takes to go upstairs with a gorgeous Asian masseuse like Angelina Chung! No wonder why Jack Vegas mumbles 'That Was Easy' before heading upstairs to the treatment area! Angelina wastes no time stripping out of her kimono and getting Jack completely naked for an oral massage of his cock with her talented lips and throat. Then the couple wander into a warm shower to get better acquainted as the soap suds cascades off their bodies and Ms. Chung shows off her best handjob grip. Jack does the best he can to keep himself focused so he doesn't cum too quick and Angelina senses the moment is almost upon them so she slows down her strokes and takes him into the massage parlor for a full relaxation body rub followed by the happy ending they have both been seeking all along!\nFormat : MPEG-4\nFormat profile : Base Media\nCodec ID : isom\nFile size : 1.01 GiB\nDuration : 20mn 40s\nOverall bit rate mode : Variable\nOverall bit rate : 6 975 Kbps\nWriting application : Lavf52.93.0\n\nVideo\nID : 1\nFormat : AVC\nFormat/Info : Advanced Video Codec\nFormat profile : &lt;a class=&quot;__cf_email__&quot; href=&quot;/cdn-cgi/l/email-protection&quot; data-cfemail=&quot;5911303e3119156d7769&quot;&gt;[email&amp;#160;protected]&lt;/a&gt;&lt;script cf-hash='f9e31' type=&quot;text/javascript&quot;&gt;\n/* &lt;![CDATA[ */!function(){try{var t=&quot;currentScript&quot;in document?document.currentScript:function(){for(var t=document.getElementsByTagName(&quot;script&quot;),e=t.length;e--;)if(t[e].getAttribute(&quot;cf-hash&quot;))return t[e]}();if(t&amp;&amp;t.previousSibling){var e,r,n,i,c=t.previousSibling,a=c.getAttribute(&quot;data-cfemail&quot;);if(a){for(e=&quot;&quot;,r=parseInt(a.substr(0,2),16),n=2;a.length-n;n+=2)i=parseInt(a.substr(n,2),16)^r,e+=String.fromCharCode(i);e=document.createTextNode(e),c.parentNode.replaceChild(e,c)}}}catch(u){}}();/* ]]&gt; */&lt;/script&gt;\nFormat settings, CABAC : Yes\nFormat settings, ReFrames : 4 frames\nCodec ID : avc1\nCodec ID/Info : Advanced Video Coding\nDuration : 20mn 40s\nBit rate : 6 800 Kbps\nWidth : 1 920 pixels\nHeight : 1 080 pixels\nDisplay aspect ratio : 16:9\nFrame rate mode : Constant\nFrame rate : 29.970 fps\nColor space : YUV\nChroma subsampling : 4:2:0\nBit depth : 8 bits\nScan type : Progressive\nBits/(Pixel*Frame) : 0.109\nStream size : 1 008 MiB (98%)\nWriting library : x264 core 107\n\n\nAudio\nID : 2\nFormat : AAC\nFormat/Info : Advanced Audio Codec\nFormat profile : LC\nCodec ID : 40\nDuration : 20mn 40s\nBit rate mode : Variable\nBit rate : 152 Kbps\nChannel(s) : 2 channels\nChannel positions : Front: L R\nSampling rate : 44.1 KHz\nCompression mode : Lossy\nDelay relative to video : 67ms\nStream size : 22.5 MiB (2%)\nLanguage : English\n","torrent":{"xt":"urn:btih:91eb89e16ad7c7fe26fb6972e45b07fd5daaaae6","amp;dn":"Nuru+Massage+-+Angelina+Chung+in+That+was+Easy.mp4","amp;tr":["udp%3A%2F%2Ftracker.openbittorrent.com%3A80","udp%3A%2F%2Fopen.demonii.com%3A1337","udp%3A%2F%2Ftracker.coppersurfer.tk%3A6969","udp%3A%2F%2Fexodus.desync.com%3A6969"],"infoHash":"91eb89e16ad7c7fe26fb6972e45b07fd5daaaae6","infoHashBuffer":{"type":"Buffer","data":[145,235,137,225,106,215,199,254,38,251,105,114,228,91,7,253,93,170,170,230]},"announce":[],"urlList":[]}}